<mxfile host="app.diagrams.net" modified="2023-01-25T17:54:58.784Z" agent="5.0 (Windows NT 10.0; Win64; x64) AppleWebKit/537.36 (KHTML, like Gecko) Chrome/109.0.0.0 Safari/537.36" etag="OWOrDKEh8g6K3CDL1kJG" version="20.8.11" type="github">
  <diagram name="Страница 1" id="NBx043L_5w2StL78OvUL">
    <mxGraphModel dx="1050" dy="541" grid="1" gridSize="10" guides="1" tooltips="1" connect="1" arrows="1" fold="1" page="1" pageScale="1" pageWidth="827" pageHeight="1169" math="0" shadow="0">
      <root>
        <mxCell id="0" />
        <mxCell id="1" parent="0" />
        <mxCell id="bAHlhpzNJxMVu7dpJOnl-10" value="" style="rounded=0;orthogonalLoop=1;jettySize=auto;html=1;shape=link;" edge="1" parent="1" source="bAHlhpzNJxMVu7dpJOnl-1" target="bAHlhpzNJxMVu7dpJOnl-3">
          <mxGeometry relative="1" as="geometry" />
        </mxCell>
        <mxCell id="bAHlhpzNJxMVu7dpJOnl-1" value="Entity" style="rounded=0;whiteSpace=wrap;html=1;" vertex="1" parent="1">
          <mxGeometry x="40" y="40" width="120" height="60" as="geometry" />
        </mxCell>
        <mxCell id="bAHlhpzNJxMVu7dpJOnl-3" value="IComponent" style="rounded=0;whiteSpace=wrap;html=1;" vertex="1" parent="1">
          <mxGeometry x="280" y="40" width="120" height="60" as="geometry" />
        </mxCell>
        <mxCell id="bAHlhpzNJxMVu7dpJOnl-18" value="" style="edgeStyle=none;rounded=0;orthogonalLoop=1;jettySize=auto;html=1;" edge="1" parent="1" source="bAHlhpzNJxMVu7dpJOnl-8" target="bAHlhpzNJxMVu7dpJOnl-17">
          <mxGeometry relative="1" as="geometry" />
        </mxCell>
        <mxCell id="bAHlhpzNJxMVu7dpJOnl-8" value="ISystem" style="rounded=0;whiteSpace=wrap;html=1;" vertex="1" parent="1">
          <mxGeometry x="280" y="210" width="120" height="60" as="geometry" />
        </mxCell>
        <mxCell id="bAHlhpzNJxMVu7dpJOnl-13" style="edgeStyle=none;rounded=0;orthogonalLoop=1;jettySize=auto;html=1;entryX=0.5;entryY=1;entryDx=0;entryDy=0;shape=flexArrow;" edge="1" parent="1" source="bAHlhpzNJxMVu7dpJOnl-9" target="bAHlhpzNJxMVu7dpJOnl-1">
          <mxGeometry relative="1" as="geometry" />
        </mxCell>
        <mxCell id="bAHlhpzNJxMVu7dpJOnl-15" style="edgeStyle=none;rounded=0;orthogonalLoop=1;jettySize=auto;html=1;" edge="1" parent="1" source="bAHlhpzNJxMVu7dpJOnl-9" target="bAHlhpzNJxMVu7dpJOnl-8">
          <mxGeometry relative="1" as="geometry" />
        </mxCell>
        <mxCell id="bAHlhpzNJxMVu7dpJOnl-9" value="World" style="whiteSpace=wrap;html=1;aspect=fixed;" vertex="1" parent="1">
          <mxGeometry x="60" y="200" width="80" height="80" as="geometry" />
        </mxCell>
        <mxCell id="bAHlhpzNJxMVu7dpJOnl-11" value="components" style="text;strokeColor=none;align=center;fillColor=none;html=1;verticalAlign=middle;whiteSpace=wrap;rounded=0;" vertex="1" parent="1">
          <mxGeometry x="192.5" y="40" width="60" height="30" as="geometry" />
        </mxCell>
        <mxCell id="bAHlhpzNJxMVu7dpJOnl-12" value="getComponent" style="text;strokeColor=none;align=center;fillColor=none;html=1;verticalAlign=middle;whiteSpace=wrap;rounded=0;" vertex="1" parent="1">
          <mxGeometry x="200" y="70" width="45" height="30" as="geometry" />
        </mxCell>
        <mxCell id="bAHlhpzNJxMVu7dpJOnl-14" value="init(),&lt;br&gt;destroy()" style="text;strokeColor=none;align=center;fillColor=none;html=1;verticalAlign=middle;whiteSpace=wrap;rounded=0;" vertex="1" parent="1">
          <mxGeometry x="110" y="140" width="60" height="30" as="geometry" />
        </mxCell>
        <mxCell id="bAHlhpzNJxMVu7dpJOnl-16" value="run(entities)" style="text;strokeColor=none;align=center;fillColor=none;html=1;verticalAlign=middle;whiteSpace=wrap;rounded=0;" vertex="1" parent="1">
          <mxGeometry x="180" y="210" width="60" height="30" as="geometry" />
        </mxCell>
        <mxCell id="bAHlhpzNJxMVu7dpJOnl-24" value="" style="edgeStyle=none;rounded=0;orthogonalLoop=1;jettySize=auto;html=1;" edge="1" parent="1" source="bAHlhpzNJxMVu7dpJOnl-17" target="bAHlhpzNJxMVu7dpJOnl-23">
          <mxGeometry relative="1" as="geometry" />
        </mxCell>
        <mxCell id="bAHlhpzNJxMVu7dpJOnl-17" value="Group" style="rounded=0;whiteSpace=wrap;html=1;" vertex="1" parent="1">
          <mxGeometry x="480" y="210" width="120" height="60" as="geometry" />
        </mxCell>
        <mxCell id="bAHlhpzNJxMVu7dpJOnl-23" value="all, none, any" style="shape=document;whiteSpace=wrap;html=1;boundedLbl=1;rounded=0;" vertex="1" parent="1">
          <mxGeometry x="680" y="200" width="120" height="80" as="geometry" />
        </mxCell>
      </root>
    </mxGraphModel>
  </diagram>
</mxfile>
